<svg width="16" height="16" viewBox="0 0 16 16" fill="none" xmlns="http://www.w3.org/2000/svg">
<path d="M2.9672 9.27213L7.60227 13.6263C7.65412 13.675 7.68004 13.6993 7.70472 13.7174C7.88058 13.8462 8.11958 13.8462 8.29544 13.7174C8.32012 13.6993 8.34605 13.675 8.39789 13.6263L13.033 9.27213C14.3371 8.04705 14.4954 6.03106 13.3986 4.61737L13.1924 4.35155C11.8803 2.66038 9.2465 2.944 8.32453 4.87576C8.19429 5.14863 7.80587 5.14863 7.67564 4.87576C6.75366 2.944 4.1199 2.66038 2.80778 4.35155L2.60154 4.61737C1.50471 6.03106 1.66308 8.04705 2.9672 9.27213Z" stroke="#5F5F5F" stroke-width="2"/>
</svg>
